<svg width="36" height="33" viewBox="0 0 36 33" fill="none" xmlns="http://www.w3.org/2000/svg">
<path d="M3.488 28.128C5.248 30.944 7.844 32.352 11.276 32.352C18.096 32.352 21.484 26.412 21.484 16.6C21.484 6.876 18.008 0.848 11.188 0.848C7.756 0.848 5.16 2.256 3.444 5.072C1.728 7.888 0.848 11.716 0.848 16.6C0.848 21.484 1.728 25.312 3.488 28.128ZM6.26 16.6C6.26 9.076 7.712 5.6 11.188 5.6C14.708 5.6 16.116 8.9 16.116 16.6C16.116 24.344 14.752 27.644 11.276 27.644C7.932 27.644 6.26 23.948 6.26 16.6ZM30.5803 30.372C30.5803 31.252 31.3283 32 32.2083 32H34.0123C34.8923 32 35.6403 31.252 35.6403 30.372V2.652C35.6403 1.772 35.1123 1.112 34.2323 1.112H33.1323C32.3843 1.112 31.5483 1.464 30.6243 2.124L24.9483 6.436C24.5523 6.744 24.3323 7.184 24.3323 7.668C24.3323 8.02 24.4643 8.328 24.6843 8.636L25.7843 9.956C26.1363 10.352 26.5763 10.528 27.1043 10.528C27.4563 10.528 27.7643 10.44 28.0723 10.22L30.5803 8.328V30.372Z" fill="#FD9339"/>
</svg>
