<svg width="45" height="33" viewBox="0 0 45 33" fill="none" xmlns="http://www.w3.org/2000/svg">
<path d="M3.488 28.128C5.248 30.944 7.844 32.352 11.276 32.352C18.096 32.352 21.484 26.412 21.484 16.6C21.484 6.876 18.008 0.848 11.188 0.848C7.756 0.848 5.16 2.256 3.444 5.072C1.728 7.888 0.848 11.716 0.848 16.6C0.848 21.484 1.728 25.312 3.488 28.128ZM6.26 16.6C6.26 9.076 7.712 5.6 11.188 5.6C14.708 5.6 16.116 8.9 16.116 16.6C16.116 24.344 14.752 27.644 11.276 27.644C7.932 27.644 6.26 23.948 6.26 16.6ZM44.0883 28.92C44.0883 28.04 43.3403 27.292 42.4603 27.292H31.2843C32.0323 26.676 32.7803 26.06 33.4843 25.4C34.1443 24.784 35.1123 23.816 36.3883 22.452C37.6203 21.088 38.6763 19.768 39.5563 18.492C41.3163 15.896 42.9003 12.112 42.9003 8.9C42.9003 6.7 42.1523 4.808 40.6123 3.224C39.0723 1.64 36.9603 0.848 34.1883 0.848C29.8323 0.848 27.3243 2.476 25.2563 6.348C25.1243 6.568 25.0803 6.788 25.0803 7.008C25.0803 7.668 25.3883 8.152 25.9603 8.46L27.1483 9.076C27.4563 9.208 27.7203 9.296 27.9843 9.296C28.6443 9.296 29.1283 8.988 29.4803 8.416C30.5803 6.744 31.9883 5.908 33.6163 5.908C36.1243 5.908 37.5323 7.404 37.5323 9.912C37.5323 12.508 36.1683 15.544 33.5723 18.712C32.2523 20.296 31.0643 21.66 29.9643 22.804C28.8643 23.948 27.5003 25.268 25.9163 26.764C24.9043 27.688 24.4203 28.612 24.4203 29.448V30.372C24.4203 31.252 25.1683 32 26.0483 32H42.4603C43.3403 32 44.0883 31.252 44.0883 30.372V28.92Z" fill="#FD9339"/>
</svg>
