<svg width="45" height="33" viewBox="0 0 45 33" fill="none" xmlns="http://www.w3.org/2000/svg">
<path d="M3.488 28.128C5.248 30.944 7.844 32.352 11.276 32.352C18.096 32.352 21.484 26.412 21.484 16.6C21.484 6.876 18.008 0.848 11.188 0.848C7.756 0.848 5.16 2.256 3.444 5.072C1.728 7.888 0.848 11.716 0.848 16.6C0.848 21.484 1.728 25.312 3.488 28.128ZM6.26 16.6C6.26 9.076 7.712 5.6 11.188 5.6C14.708 5.6 16.116 8.9 16.116 16.6C16.116 24.344 14.752 27.644 11.276 27.644C7.932 27.644 6.26 23.948 6.26 16.6ZM34.1003 0.715999C31.1963 0.715999 28.4243 1.86 25.8283 4.104C25.4323 4.412 25.2563 4.852 25.2563 5.38C25.2563 5.776 25.3883 6.128 25.6523 6.392L26.5763 7.404C26.9283 7.8 27.3683 8.02 27.8963 8.02C28.2923 8.02 28.6443 7.888 28.9523 7.668C30.5803 6.392 32.1203 5.776 33.6163 5.776C36.2123 5.776 37.5323 7.228 37.5323 9.516C37.5323 12.112 35.3763 13.74 32.6043 13.74C31.5483 13.74 30.8003 14.488 30.8003 15.368V17.172C30.8003 18.052 31.5483 18.8 32.4283 18.8H33.0003C36.5643 18.8 38.7203 20.34 38.7203 23.156C38.7203 25.62 36.9163 27.424 33.7483 27.424C32.0323 27.424 30.1403 26.632 27.9843 25.004C27.6763 24.784 27.3243 24.652 26.9723 24.652C26.4883 24.652 26.0483 24.872 25.6963 25.268L24.6403 26.632C24.4203 26.852 24.2883 27.204 24.2883 27.644C24.2883 28.216 24.4643 28.612 24.8603 28.92C27.8963 31.428 30.2283 32.484 34.0563 32.484C36.9603 32.484 39.3803 31.648 41.2723 29.976C43.1643 28.348 44.1323 26.104 44.1323 23.332C44.1323 19.592 41.9763 16.6 38.2363 15.896C41.3603 14.488 42.9443 12.024 42.9443 8.548C42.9443 3.752 39.4243 0.715999 34.1003 0.715999Z" fill="#FD9339"/>
</svg>
