<svg width="47" height="33" viewBox="0 0 47 33" fill="none" xmlns="http://www.w3.org/2000/svg">
<path d="M3.488 28.128C5.248 30.944 7.844 32.352 11.276 32.352C18.096 32.352 21.484 26.412 21.484 16.6C21.484 6.876 18.008 0.848 11.188 0.848C7.756 0.848 5.16 2.256 3.444 5.072C1.728 7.888 0.848 11.716 0.848 16.6C0.848 21.484 1.728 25.312 3.488 28.128ZM6.26 16.6C6.26 9.076 7.712 5.6 11.188 5.6C14.708 5.6 16.116 8.9 16.116 16.6C16.116 24.344 14.752 27.644 11.276 27.644C7.932 27.644 6.26 23.948 6.26 16.6ZM45.3643 24.872C46.2443 24.872 46.9923 24.124 46.9923 23.244V21.44C46.9923 20.56 46.2443 19.812 45.3643 19.812H43.0323V13.828C43.0323 12.948 42.2843 12.2 41.4043 12.2H39.6003C38.7203 12.2 37.9723 12.948 37.9723 13.828V19.812H30.4483L40.2603 3.356C40.3923 3.136 40.4803 2.916 40.4803 2.608C40.4803 1.86 39.8643 1.2 39.0283 1.2H37.2243C36.2563 1.2 35.4643 1.684 34.8923 2.652L24.7723 19.68C24.1123 20.824 23.7603 21.748 23.7603 22.496V23.376C23.7603 24.124 24.5083 24.872 25.3883 24.872H37.9723V30.372C37.9723 31.252 38.7203 32 39.6003 32H41.4043C42.2843 32 43.0323 31.252 43.0323 30.372V24.872H45.3643Z" fill="#FD9339"/>
</svg>
