<svg width="22" height="22" viewBox="0 0 22 22" fill="none" xmlns="http://www.w3.org/2000/svg">
<path d="M6.875 16.5C7.63439 16.5 8.25 15.8844 8.25 15.125C8.25 14.3656 7.63439 13.75 6.875 13.75C6.11561 13.75 5.5 14.3656 5.5 15.125C5.5 15.8844 6.11561 16.5 6.875 16.5Z" stroke="#4E2D2D" stroke-width="1.4" stroke-linecap="round" stroke-linejoin="round"/>
<path d="M3.43806 10.4295L11.368 4.07113C11.5628 3.91704 11.7862 3.80309 12.0254 3.73586C12.2645 3.66864 12.5146 3.64947 12.7612 3.67947C14.5498 3.88942 16.199 4.74917 17.3953 6.09535C18.5916 7.44152 19.2516 9.18029 19.25 10.9812V17.4125C19.2506 17.8992 19.0577 18.3663 18.7139 18.7109C18.3701 19.0555 17.9035 19.2494 17.4167 19.25H4.58333C4.09655 19.2494 3.62993 19.0555 3.28611 18.7109C2.94229 18.3663 2.74945 17.8992 2.75 17.4125V11.8644C2.74992 11.589 2.81171 11.317 2.9308 11.0687C3.04989 10.8203 3.22324 10.6019 3.43806 10.4295V10.4295Z" stroke="#4E2D2D" stroke-width="1.4" stroke-linecap="round" stroke-linejoin="round"/>
<path d="M15.5833 19.25H13.2917C13.0486 19.25 12.8154 19.1534 12.6435 18.9815C12.4716 18.8096 12.375 18.5764 12.375 18.3333V18.1042C12.375 17.5572 12.5923 17.0326 12.9791 16.6458C13.3659 16.259 13.8905 16.0417 14.4375 16.0417V16.0417C14.9845 16.0417 15.5091 16.259 15.8959 16.6458C16.2827 17.0326 16.5 17.5572 16.5 18.1042V18.3333C16.5 18.5764 16.4034 18.8096 16.2315 18.9815C16.0596 19.1534 15.8264 19.25 15.5833 19.25V19.25Z" stroke="#4E2D2D" stroke-width="1.4" stroke-linecap="round" stroke-linejoin="round"/>
<path d="M19.25 10.9999L2.96774 11" stroke="#4E2D2D" stroke-width="1.4" stroke-linecap="round" stroke-linejoin="round"/>
<path d="M11.2292 11H13.0625C13.3056 11 13.5388 11.0966 13.7107 11.2685C13.8826 11.4404 13.9792 11.6736 13.9792 11.9167C13.9792 12.4029 13.786 12.8692 13.4422 13.213C13.0984 13.5568 12.6321 13.75 12.1458 13.75C11.6596 13.75 11.1933 13.5568 10.8495 13.213C10.5057 12.8692 10.3125 12.4029 10.3125 11.9167C10.3125 11.6736 10.4091 11.4404 10.581 11.2685C10.7529 11.0966 10.9861 11 11.2292 11V11Z" stroke="#4E2D2D" stroke-width="1.4" stroke-linecap="round" stroke-linejoin="round"/>
</svg>
